<svg width="1800" height="801" viewBox="0 0 1800 801" fill="none" xmlns="http://www.w3.org/2000/svg">
<path d="M1799 1H1V799H1799V1Z" fill="white" stroke="#F5E6E0" stroke-width="2"/>
<path d="M1791 10H13V791H1791V10Z" fill="#E0EFF5" stroke="#F5E6E0" stroke-width="2"/>
<line x1="12.6105" y1="775.687" x2="552.61" y2="104.687" stroke="white"/>
<line x1="553.411" y1="89.7151" x2="1046.41" y2="800.715" stroke="white"/>
<line x1="757.61" y1="773.687" x2="1297.61" y2="102.687" stroke="white"/>
<line x1="1298.41" y1="87.7151" x2="1791.41" y2="798.715" stroke="white"/>
<path d="M1632.88 113.291C1632.67 109.974 1631.85 108.039 1630.41 107.485C1629.03 106.929 1626.56 107.407 1623.01 108.918L1549.67 140.624L1581.96 151.827L1623.77 134.103C1627.18 132.594 1629.52 130.785 1630.78 128.673C1632.1 126.56 1632.84 123.255 1633 118.758C1637.13 117.039 1641 116.953 1644.62 118.501L1646.14 187.43C1642.6 189.136 1638.72 189.222 1634.52 187.687C1634.11 180.663 1633.03 176.096 1631.29 173.985C1629.61 171.873 1627.32 171.403 1624.42 172.574L1551.62 202.119L1625.64 227.932C1629.25 229.154 1631.62 228.646 1632.74 226.407C1633.93 224.232 1634.71 219.852 1635.09 213.266C1639.22 211.612 1643.09 211.527 1646.71 213.01L1647.99 271.003C1644.44 272.71 1640.57 272.795 1636.37 271.26C1635.5 261.446 1634.38 255.154 1633.02 252.384C1631.46 249.488 1629.14 247.456 1626.05 246.287L1492.75 199.22L1492.53 189.261L1559.42 161.605L1491.39 137.614L1491.17 127.85L1622.16 70.3529C1625.32 68.9807 1627.52 66.6204 1628.75 63.2722C1630.04 59.9875 1630.94 55.0836 1631.45 48.5604C1635.58 46.8412 1639.45 46.7556 1643.07 48.3037L1644.5 113.034C1640.95 114.74 1637.08 114.826 1632.88 113.291ZM1641.2 109.786L1639.92 51.792C1638.6 50.9747 1637.07 51.0085 1635.33 51.8934C1634.42 63.6352 1630.58 70.981 1623.8 73.9308L1495.23 130.398L1495.33 134.791L1570.34 160.875L1496.6 192.004L1496.69 196.397L1628.81 243.1C1632.55 244.45 1635.18 246.996 1636.7 250.74C1638.28 254.547 1639.41 259.96 1640.08 266.978C1641.86 267.785 1643.39 267.751 1644.67 266.876L1643.58 217.279C1642.26 216.527 1640.73 216.56 1638.99 217.38C1638.25 225.146 1637.15 229.924 1635.69 231.715C1634.05 233.9 1631.68 234.408 1628.59 233.239L1525.53 197.518L1625.63 156.723C1629.11 155.148 1631.88 156.618 1633.94 161.131C1636.05 165.642 1637.49 173.067 1638.24 183.404C1640.01 184.212 1641.54 184.178 1642.83 183.303L1641.47 121.99C1640.15 121.172 1638.62 121.206 1636.88 122.091C1636.58 126.2 1635.58 129.446 1633.87 131.828C1632.23 134.209 1629.35 136.226 1625.22 137.88L1582.05 156.025L1524.17 135.912L1624.22 92.6762C1628.59 90.3654 1631.53 90.5285 1633.02 93.1655C1634.58 95.801 1635.77 101.375 1636.61 109.887C1638.39 110.629 1639.92 110.596 1641.2 109.786ZM1639.14 304.019C1639.47 318.729 1634.29 326.202 1623.62 326.438C1612.95 326.674 1607.45 319.437 1607.12 304.727C1607.07 302.514 1607.45 300.422 1608.25 298.45C1609.06 296.544 1610.16 294.859 1611.56 293.395C1613.02 291.93 1614.72 290.753 1616.66 289.864C1618.59 288.975 1620.63 288.506 1622.78 288.459C1624.93 288.411 1626.99 288.789 1628.96 289.592C1630.93 290.395 1632.65 291.497 1634.11 292.897C1635.64 294.296 1636.85 295.93 1637.74 297.799C1638.63 299.733 1639.09 301.806 1639.14 304.019ZM1631.33 295.205C1629.01 293.303 1626.19 292.388 1622.87 292.462C1621.18 292.499 1619.59 292.795 1618.1 293.349C1616.68 293.966 1615.43 294.775 1614.35 295.776C1613.33 296.775 1612.5 297.9 1611.88 299.151C1611.32 300.466 1611.06 301.839 1611.09 303.271C1611.12 304.638 1611.45 305.966 1612.06 307.255C1612.74 308.542 1613.61 309.663 1614.67 310.616C1615.8 311.568 1617.09 312.321 1618.53 312.875C1620.04 313.428 1621.64 313.685 1623.34 313.648C1625.03 313.611 1626.58 313.283 1628 312.666C1629.49 312.047 1630.74 311.238 1631.76 310.238C1632.84 309.238 1633.67 308.08 1634.22 306.765C1634.84 305.449 1635.14 304.108 1635.11 302.741C1635.08 301.374 1634.76 300.046 1634.14 298.757C1633.53 297.468 1632.59 296.284 1631.33 295.205ZM1507.13 337.412C1508.22 321.889 1511.18 314.01 1515.99 313.773C1535.5 312.691 1559.48 311.901 1587.93 311.402C1588.96 310.859 1589.78 309.701 1590.39 307.929C1585.96 298.975 1583.08 289.629 1581.76 279.89C1580.19 279.534 1578.66 279.568 1577.17 279.992C1576.94 287.355 1575.73 292.982 1573.54 296.873C1549.28 297.995 1529.98 298.356 1515.64 297.957C1510.82 297.933 1507.57 292.47 1505.9 281.566C1504.26 280.951 1502.66 280.987 1501.12 281.672C1501.92 300.344 1502.33 318.959 1502.35 337.518C1503.93 338.134 1505.52 338.099 1507.13 337.412ZM1510.83 340.945C1506.81 342.075 1502.88 342.162 1499.01 341.206C1499.2 320.233 1498.74 299.242 1497.62 278.233C1501.44 277.041 1505.38 276.954 1509.44 277.972C1510.71 288.558 1512.81 293.884 1515.75 293.95C1533.99 294.393 1552.44 294.05 1571.11 292.922C1572.31 288.532 1573.04 283.078 1573.29 276.561C1577.16 274.978 1581.29 274.886 1585.69 276.287C1586.42 286.104 1589.6 297.104 1595.21 309.288C1594.84 316.329 1592.84 321.615 1589.21 325.147C1557.18 325.594 1532.94 326.39 1516.49 327.535C1513.56 327.795 1511.68 332.265 1510.83 340.945ZM1508.96 420.107C1507.45 419.359 1505.85 419.394 1504.18 420.212C1504.94 437.127 1505.32 454.082 1505.3 471.079C1506.88 471.956 1508.48 471.92 1510.09 470.973C1510.52 455.074 1513.46 447 1518.93 446.749L1568.01 444.687C1576.92 444.165 1583.4 442.556 1587.44 439.862C1591.55 437.232 1593.54 432.695 1593.4 426.251C1593.16 415.446 1585.42 402.756 1570.19 388.18L1589.61 387.751C1590.64 387.207 1591.46 386.049 1592.08 384.278C1587.65 375.324 1584.77 365.978 1583.45 356.239C1581.88 355.883 1580.35 355.917 1578.86 356.34C1578.63 363.834 1577.42 369.396 1575.22 373.026C1555.78 374.172 1536.48 374.598 1517.33 374.305C1512.51 374.282 1509.26 368.753 1507.58 357.72C1506.07 356.972 1504.47 357.007 1502.8 357.825C1503.82 374.734 1504.2 391.754 1503.93 408.887C1505.64 409.631 1507.23 409.596 1508.71 408.781C1509.74 396.581 1512.73 390.361 1517.68 390.122C1531.2 389.302 1546.62 388.701 1563.94 388.318C1575.75 401.146 1581.73 411.271 1581.9 418.691C1582.05 425.785 1576.24 429.463 1564.46 429.723L1518.57 430.542C1515.38 430.612 1513.11 429.685 1511.77 427.761C1510.49 425.836 1509.55 423.285 1508.96 420.107ZM1500.69 417.164C1504.5 415.452 1508.43 415.365 1512.5 416.903C1512.55 418.986 1513.15 421.121 1514.31 423.31C1515.53 425.497 1516.92 426.573 1518.48 426.539L1564.37 425.72C1571.47 425.563 1575.76 424.068 1577.26 421.235C1575.99 416.444 1572.33 410.046 1566.29 402.039C1548.39 402.435 1532.35 403.049 1518.18 403.884C1514.73 404.285 1512.81 406.933 1512.39 411.826C1508.39 413.542 1504.46 413.629 1500.58 412.087C1500.81 393.002 1500.39 373.833 1499.31 354.581C1503.11 352.869 1507.05 352.782 1511.12 354.32C1512.79 364.898 1514.89 370.224 1517.43 370.298C1535.8 370.609 1554.26 370.201 1572.79 369.075C1574 364.685 1574.72 359.297 1574.97 352.91C1578.85 351.326 1582.98 351.235 1587.37 352.636C1588.11 362.452 1591.28 373.453 1596.89 385.636C1596.53 392.677 1594.53 397.964 1590.89 401.495L1587.67 401.567C1594 410.674 1597.29 421.216 1597.55 433.192C1597.75 441.979 1595.48 448.281 1590.74 452.097C1586.07 455.977 1578.6 458.096 1568.32 458.453C1542.48 459.285 1526.12 459.972 1519.23 460.515C1516.57 460.704 1514.75 465.335 1513.78 474.408C1509.51 476 1505.57 475.957 1501.95 474.279C1501.92 455.199 1501.5 436.161 1500.69 417.164ZM1583.58 517.017L1584.43 555.387C1586.99 556.242 1589.33 556.19 1591.46 555.231L1590.61 516.862L1611.99 516.389C1612.67 514.746 1612.64 513.119 1611.88 511.508C1607.34 509.199 1603.34 506.617 1599.89 503.763C1596.51 500.907 1594.11 498.486 1592.7 496.498C1591.36 494.574 1589.6 491.78 1587.44 488.116C1586.06 487.691 1584.56 487.724 1582.94 488.216L1583.21 500.127L1532.05 501.257C1512.98 501.679 1503.62 509.765 1503.96 525.516C1504.11 532.22 1505.97 538.366 1509.55 543.952C1513.19 549.537 1517.58 553.673 1522.72 556.36C1524.14 555.742 1524.89 554.651 1524.99 553.086C1519.39 547.088 1516.52 541.226 1516.4 535.498C1516.14 524.173 1521.16 518.396 1531.45 518.169L1583.58 517.017ZM1529.16 551.822C1528.73 555.934 1526.55 558.912 1522.62 560.757C1516.36 557.509 1511.08 552.71 1506.77 546.358C1502.4 540.008 1500.13 533.09 1499.96 525.605C1499.56 507.25 1510.22 497.832 1531.96 497.352L1579.22 496.308L1578.95 484.299C1582.38 483.246 1585.96 483.167 1589.69 484.062C1592.06 487.982 1593.98 490.967 1595.46 493.019C1597 495.068 1599.47 497.619 1602.85 500.67C1606.24 503.72 1610.31 506.398 1615.05 508.703C1617.72 514.765 1617.75 521.895 1615.13 530.093L1594.92 530.54L1595.55 558.951C1590.78 561.14 1585.8 561.25 1580.61 559.281L1579.98 530.87L1531.75 531.935C1525.5 532.073 1521.87 534.4 1520.87 538.916C1521.8 542.802 1524.56 547.104 1529.16 551.822ZM1591.34 620.68C1591.46 625.887 1589.85 629.699 1586.52 632.117C1583.25 634.534 1579.11 635.797 1574.1 635.908C1572.21 635.95 1570.05 635.672 1567.63 635.074L1566.79 596.998C1574.97 598.835 1581.06 601.957 1585.07 606.362C1589.14 610.83 1591.23 615.603 1591.34 620.68ZM1560.13 596.168L1561.3 649.378C1564.58 650.347 1567.95 650.794 1571.4 650.717C1579.01 650.549 1585.34 648.228 1590.39 643.753C1595.5 639.342 1597.95 632.418 1597.74 622.98C1597.47 610.679 1592.78 600.428 1583.68 592.229C1574.58 584.029 1563.16 580.081 1549.43 580.385C1534.78 580.708 1523.84 584.955 1516.59 593.125C1509.35 601.295 1505.85 610.782 1506.09 621.587C1506.26 629.592 1508.58 636.965 1513.02 643.704C1517.54 650.507 1524.19 655.407 1532.98 658.404C1534 657.47 1534.69 656.185 1535.04 654.549C1534.65 654.297 1533.56 653.54 1531.77 652.277C1530.05 651.077 1528.79 650.194 1528 649.625C1527.27 649.055 1526.17 648.005 1524.71 646.474C1523.31 645.007 1522.27 643.565 1521.58 642.148C1520.9 640.795 1520.21 639.052 1519.52 636.919C1518.88 634.784 1518.54 632.447 1518.48 629.909C1518.26 619.885 1521.04 611.846 1526.84 605.792C1532.69 599.737 1540.66 596.468 1550.75 595.984C1553.03 595.934 1556.15 595.995 1560.13 596.168ZM1539.6 652.885C1538.78 657.006 1536.8 660.371 1533.67 662.98C1523.43 659.494 1515.66 653.935 1510.35 646.303C1505.03 638.671 1502.28 630.462 1502.08 621.675C1501.82 609.699 1505.63 599.228 1513.5 590.263C1521.38 581.363 1533.33 576.736 1549.34 576.382C1563.85 576.061 1576.12 580.251 1586.15 588.951C1596.24 597.714 1601.47 610.297 1601.83 626.7C1602.38 651.498 1592.33 664.125 1571.7 664.581C1567.67 664.67 1562.96 663.83 1557.58 662.061L1556.42 609.632L1550.08 609.772C1542.21 610.272 1535.84 612.561 1530.98 616.641C1526.19 620.719 1523.45 626.25 1522.75 633.233C1523.24 637.325 1524.71 640.679 1527.18 643.294C1529.64 645.909 1533.79 649.106 1539.6 652.885ZM1574.01 631.905C1581.17 631.747 1585.44 629.243 1586.83 624.393C1584.95 618.705 1579.71 614.555 1571.12 611.944L1571.56 631.764C1571.82 631.758 1572.21 631.782 1572.74 631.836C1573.26 631.889 1573.68 631.912 1574.01 631.905ZM1566.04 717.844C1572.06 719.339 1577.96 722.563 1583.74 727.514C1589.51 732.466 1592.46 737.578 1592.58 742.85C1592.71 749.034 1590.8 752.169 1586.83 752.257C1583.25 752.336 1580.93 750.694 1579.88 747.331C1578.56 746.449 1577.03 746.482 1575.29 747.432C1575.37 750.947 1576.51 753.787 1578.7 755.953C1580.9 758.183 1583.92 759.256 1587.76 759.172C1591.8 759.082 1594.92 757.776 1597.15 755.252C1599.44 752.792 1600.54 749.61 1600.45 745.704C1600.34 740.627 1598.18 735.563 1593.96 730.512C1589.82 725.524 1585.19 721.198 1580.1 717.534L1596.89 717.163C1597.92 716.619 1598.74 715.494 1599.36 713.787C1595.06 705.156 1592.17 695.126 1590.68 683.698C1589.11 683.342 1587.58 683.376 1586.09 683.799C1585.9 692.595 1584.7 698.905 1582.51 702.731C1558.24 703.788 1538.78 704.153 1524.12 703.826C1519.3 703.802 1516.05 698.338 1514.38 687.435C1512.6 686.498 1511.07 686.531 1509.79 687.536C1510.95 704.572 1511.36 723.155 1511.02 743.285C1512.34 744.167 1513.87 744.133 1515.61 743.183C1516.7 727.726 1519.65 719.879 1524.47 719.642C1537.67 718.764 1551.53 718.165 1566.04 717.844ZM1524.97 733.404C1522.43 733.59 1520.54 738.027 1519.3 746.716C1515.06 748.959 1510.92 748.92 1506.9 746.599C1507.2 718.982 1506.93 698.117 1506.1 684.004C1509.89 681.511 1513.82 681.294 1517.9 683.352C1519.58 694.256 1521.68 699.744 1524.23 699.818C1542.79 700.189 1561.41 699.843 1580.08 698.78C1581.28 694.455 1582 688.513 1582.22 680.954C1586.09 679.371 1590.23 679.28 1594.62 680.68C1595.51 691.536 1598.7 702.992 1604.17 715.048C1603.55 722.095 1601.55 727.414 1598.18 731.005C1602.27 736.385 1604.36 741.255 1604.46 745.616C1604.57 750.693 1603.16 754.859 1600.24 758.114C1597.32 761.37 1593.19 763.057 1587.85 763.174C1582.77 763.287 1578.77 761.877 1575.84 758.947C1572.91 756.016 1571.39 752.207 1571.29 747.521C1571.19 743.16 1572.57 739.483 1575.44 736.489C1571.8 733.899 1568.51 732.312 1565.57 731.725C1551.44 732.037 1537.91 732.597 1524.97 733.404Z" fill="#D9E3FF"/>
<rect x="183.687" y="91.6539" width="167" height="136" transform="rotate(12.8317 183.687 91.6539)" stroke="white" stroke-width="3"/>
<rect x="609.985" y="247.907" width="167" height="136" transform="rotate(-24.3749 609.985 247.907)" stroke="white" stroke-width="3"/>
<rect x="275.806" y="474.971" width="167" height="136" transform="rotate(23.3187 275.806 474.971)" stroke="white" stroke-width="3"/>
<rect x="719.806" y="607.971" width="167" height="136" transform="rotate(23.3187 719.806 607.971)" stroke="white" stroke-width="3"/>
</svg>
